<mxfile host="app.diagrams.net" agent="Mozilla/5.0 (Windows NT 10.0; Win64; x64; rv:133.0) Gecko/20100101 Firefox/133.0" version="24.9.3">
  <diagram name="Page-1" id="u9JjjUKKlq0hfqD01hVt">
    <mxGraphModel dx="2391" dy="1117" grid="1" gridSize="10" guides="1" tooltips="1" connect="1" arrows="1" fold="1" page="1" pageScale="1" pageWidth="827" pageHeight="1169" math="0" shadow="0">
      <root>
        <mxCell id="0" />
        <mxCell id="1" parent="0" />
        <mxCell id="dWCmlZYG6BUhkOjTeTQW-1" value="&lt;font style=&quot;font-size: 24px;&quot;&gt;&lt;b&gt;RECV reception from a truck&lt;/b&gt;&lt;/font&gt;" style="text;html=1;align=center;verticalAlign=middle;whiteSpace=wrap;rounded=0;" parent="1" vertex="1">
          <mxGeometry x="340" y="270" width="210" height="38" as="geometry" />
        </mxCell>
        <mxCell id="dWCmlZYG6BUhkOjTeTQW-2" style="edgeStyle=orthogonalEdgeStyle;rounded=0;orthogonalLoop=1;jettySize=auto;html=1;exitX=0;exitY=0.5;exitDx=0;exitDy=0;" parent="1" source="dWCmlZYG6BUhkOjTeTQW-4" target="dWCmlZYG6BUhkOjTeTQW-11" edge="1">
          <mxGeometry relative="1" as="geometry" />
        </mxCell>
        <mxCell id="dWCmlZYG6BUhkOjTeTQW-3" value="DLVR" style="edgeLabel;html=1;align=center;verticalAlign=middle;resizable=0;points=[];" parent="dWCmlZYG6BUhkOjTeTQW-2" vertex="1" connectable="0">
          <mxGeometry x="-0.5404" relative="1" as="geometry">
            <mxPoint y="12" as="offset" />
          </mxGeometry>
        </mxCell>
        <mxCell id="dWCmlZYG6BUhkOjTeTQW-147" style="edgeStyle=orthogonalEdgeStyle;rounded=0;orthogonalLoop=1;jettySize=auto;html=1;" parent="1" source="dWCmlZYG6BUhkOjTeTQW-4" target="bN70ST8pg8FZlKciylM6-5" edge="1">
          <mxGeometry relative="1" as="geometry">
            <mxPoint x="259.52941176470586" y="948" as="targetPoint" />
          </mxGeometry>
        </mxCell>
        <mxCell id="dWCmlZYG6BUhkOjTeTQW-154" value="RECV" style="edgeLabel;html=1;align=center;verticalAlign=middle;resizable=0;points=[];" parent="dWCmlZYG6BUhkOjTeTQW-147" vertex="1" connectable="0">
          <mxGeometry x="-0.4095" y="2" relative="1" as="geometry">
            <mxPoint x="18" y="3" as="offset" />
          </mxGeometry>
        </mxCell>
        <mxCell id="dWCmlZYG6BUhkOjTeTQW-4" value="Move kind ?" style="rhombus;whiteSpace=wrap;html=1;fillColor=#66B2FF;" parent="1" vertex="1">
          <mxGeometry x="197.25" y="728" width="125.5" height="63" as="geometry" />
        </mxCell>
        <mxCell id="dWCmlZYG6BUhkOjTeTQW-11" value="&lt;div&gt;Launch DLVR&lt;/div&gt;&lt;div&gt;Function&lt;/div&gt;" style="whiteSpace=wrap;html=1;aspect=fixed;fillColor=#66B2FF;" parent="1" vertex="1">
          <mxGeometry x="90" y="724" width="71" height="71" as="geometry" />
        </mxCell>
        <mxCell id="dWCmlZYG6BUhkOjTeTQW-122" style="edgeStyle=orthogonalEdgeStyle;rounded=0;orthogonalLoop=1;jettySize=auto;html=1;" parent="1" source="dWCmlZYG6BUhkOjTeTQW-17" edge="1">
          <mxGeometry relative="1" as="geometry">
            <mxPoint x="260" y="380" as="targetPoint" />
          </mxGeometry>
        </mxCell>
        <mxCell id="dWCmlZYG6BUhkOjTeTQW-17" value="Start" style="ellipse;whiteSpace=wrap;html=1;aspect=fixed;fillColor=#66B2FF;" parent="1" vertex="1">
          <mxGeometry x="220" y="260" width="80" height="80" as="geometry" />
        </mxCell>
        <mxCell id="dWCmlZYG6BUhkOjTeTQW-143" style="edgeStyle=orthogonalEdgeStyle;rounded=0;orthogonalLoop=1;jettySize=auto;html=1;" parent="1" source="dWCmlZYG6BUhkOjTeTQW-40" edge="1">
          <mxGeometry relative="1" as="geometry">
            <mxPoint x="443.8088235294117" y="634.190471056949" as="targetPoint" />
          </mxGeometry>
        </mxCell>
        <mxCell id="dWCmlZYG6BUhkOjTeTQW-40" value="YC - load onto yard" style="whiteSpace=wrap;html=1;aspect=fixed;fillColor=#66B2FF;" parent="1" vertex="1">
          <mxGeometry x="403.75" y="697.63" width="80" height="80" as="geometry" />
        </mxCell>
        <mxCell id="dWCmlZYG6BUhkOjTeTQW-148" style="edgeStyle=orthogonalEdgeStyle;rounded=0;orthogonalLoop=1;jettySize=auto;html=1;entryX=1;entryY=0.5;entryDx=0;entryDy=0;" parent="1" source="dWCmlZYG6BUhkOjTeTQW-46" target="dWCmlZYG6BUhkOjTeTQW-133" edge="1">
          <mxGeometry relative="1" as="geometry" />
        </mxCell>
        <mxCell id="dWCmlZYG6BUhkOjTeTQW-149" value="Yes" style="edgeLabel;html=1;align=center;verticalAlign=middle;resizable=0;points=[];" parent="dWCmlZYG6BUhkOjTeTQW-148" vertex="1" connectable="0">
          <mxGeometry x="-0.2546" y="-2" relative="1" as="geometry">
            <mxPoint x="4" y="-7" as="offset" />
          </mxGeometry>
        </mxCell>
        <mxCell id="bN70ST8pg8FZlKciylM6-3" style="edgeStyle=orthogonalEdgeStyle;rounded=0;orthogonalLoop=1;jettySize=auto;html=1;entryX=0.5;entryY=1;entryDx=0;entryDy=0;" edge="1" parent="1" source="dWCmlZYG6BUhkOjTeTQW-46" target="dWCmlZYG6BUhkOjTeTQW-109">
          <mxGeometry relative="1" as="geometry" />
        </mxCell>
        <mxCell id="bN70ST8pg8FZlKciylM6-4" value="No" style="edgeLabel;html=1;align=center;verticalAlign=middle;resizable=0;points=[];" vertex="1" connectable="0" parent="bN70ST8pg8FZlKciylM6-3">
          <mxGeometry x="0.2406" relative="1" as="geometry">
            <mxPoint x="-10" y="10" as="offset" />
          </mxGeometry>
        </mxCell>
        <mxCell id="dWCmlZYG6BUhkOjTeTQW-46" value="Still wi in POW ?" style="rhombus;whiteSpace=wrap;html=1;fillColor=#66B2FF;" parent="1" vertex="1">
          <mxGeometry x="381" y="598.97" width="125.5" height="63" as="geometry" />
        </mxCell>
        <mxCell id="dWCmlZYG6BUhkOjTeTQW-93" style="edgeStyle=orthogonalEdgeStyle;rounded=0;orthogonalLoop=1;jettySize=auto;html=1;exitX=0.5;exitY=0;exitDx=0;exitDy=0;" parent="1" source="dWCmlZYG6BUhkOjTeTQW-91" target="dWCmlZYG6BUhkOjTeTQW-40" edge="1">
          <mxGeometry relative="1" as="geometry" />
        </mxCell>
        <mxCell id="bN70ST8pg8FZlKciylM6-50" style="edgeStyle=orthogonalEdgeStyle;rounded=0;orthogonalLoop=1;jettySize=auto;html=1;entryX=0;entryY=0.5;entryDx=0;entryDy=0;" edge="1" parent="1" source="dWCmlZYG6BUhkOjTeTQW-91" target="bN70ST8pg8FZlKciylM6-43">
          <mxGeometry relative="1" as="geometry" />
        </mxCell>
        <mxCell id="dWCmlZYG6BUhkOjTeTQW-91" value="YC - get ready to fetch from XT ()" style="whiteSpace=wrap;html=1;aspect=fixed;fillColor=#6a00ff;fontColor=#ffffff;strokeColor=#3700CC;" parent="1" vertex="1">
          <mxGeometry x="404" y="840" width="80" height="80" as="geometry" />
        </mxCell>
        <mxCell id="bN70ST8pg8FZlKciylM6-2" style="edgeStyle=orthogonalEdgeStyle;rounded=0;orthogonalLoop=1;jettySize=auto;html=1;" edge="1" parent="1" source="dWCmlZYG6BUhkOjTeTQW-107" target="bN70ST8pg8FZlKciylM6-1">
          <mxGeometry relative="1" as="geometry" />
        </mxCell>
        <mxCell id="dWCmlZYG6BUhkOjTeTQW-107" value="&lt;span style=&quot;text-align: left;&quot;&gt;&amp;nbsp;YC&lt;/span&gt;&lt;span style=&quot;text-align: left; background-color: initial;&quot;&gt;&amp;nbsp;Pool&amp;nbsp;&lt;/span&gt;&lt;span style=&quot;text-align: left; background-color: initial;&quot;&gt;IDLE&lt;/span&gt;" style="sketch=0;outlineConnect=0;strokeColor=#9673a6;fillColor=#e1d5e7;dashed=0;verticalLabelPosition=top;verticalAlign=bottom;align=center;html=1;fontSize=12;fontStyle=0;aspect=fixed;shape=mxgraph.aws4.resourceIcon;resIcon=mxgraph.aws4.queue;labelPosition=center;" parent="1" vertex="1">
          <mxGeometry x="414" y="379" width="60" height="60" as="geometry" />
        </mxCell>
        <mxCell id="dWCmlZYG6BUhkOjTeTQW-108" value="" style="edgeStyle=orthogonalEdgeStyle;rounded=0;orthogonalLoop=1;jettySize=auto;html=1;" parent="1" source="dWCmlZYG6BUhkOjTeTQW-109" target="dWCmlZYG6BUhkOjTeTQW-107" edge="1">
          <mxGeometry relative="1" as="geometry" />
        </mxCell>
        <mxCell id="dWCmlZYG6BUhkOjTeTQW-109" value="Release YC" style="whiteSpace=wrap;html=1;aspect=fixed;fillColor=#e1d5e7;dashed=1;strokeColor=#9673a6;" parent="1" vertex="1">
          <mxGeometry x="414" y="487.5" width="60" height="60" as="geometry" />
        </mxCell>
        <mxCell id="dWCmlZYG6BUhkOjTeTQW-151" style="edgeStyle=orthogonalEdgeStyle;rounded=0;orthogonalLoop=1;jettySize=auto;html=1;" parent="1" target="dWCmlZYG6BUhkOjTeTQW-127" edge="1">
          <mxGeometry relative="1" as="geometry">
            <mxPoint x="260" y="440" as="sourcePoint" />
          </mxGeometry>
        </mxCell>
        <mxCell id="dWCmlZYG6BUhkOjTeTQW-138" style="edgeStyle=orthogonalEdgeStyle;rounded=0;orthogonalLoop=1;jettySize=auto;html=1;exitX=0;exitY=0.5;exitDx=0;exitDy=0;" parent="1" source="dWCmlZYG6BUhkOjTeTQW-127" edge="1">
          <mxGeometry relative="1" as="geometry">
            <mxPoint x="260" y="477.5" as="targetPoint" />
            <Array as="points">
              <mxPoint x="189" y="522.5" />
              <mxPoint x="189" y="477.5" />
            </Array>
          </mxGeometry>
        </mxCell>
        <mxCell id="dWCmlZYG6BUhkOjTeTQW-139" value="Wait" style="edgeLabel;html=1;align=center;verticalAlign=middle;resizable=0;points=[];" parent="dWCmlZYG6BUhkOjTeTQW-138" vertex="1" connectable="0">
          <mxGeometry x="-0.3537" relative="1" as="geometry">
            <mxPoint x="11" as="offset" />
          </mxGeometry>
        </mxCell>
        <mxCell id="dWCmlZYG6BUhkOjTeTQW-152" style="edgeStyle=orthogonalEdgeStyle;rounded=0;orthogonalLoop=1;jettySize=auto;html=1;exitX=0.5;exitY=1;exitDx=0;exitDy=0;entryX=0.5;entryY=0;entryDx=0;entryDy=0;" parent="1" source="dWCmlZYG6BUhkOjTeTQW-127" target="dWCmlZYG6BUhkOjTeTQW-133" edge="1">
          <mxGeometry relative="1" as="geometry" />
        </mxCell>
        <mxCell id="dWCmlZYG6BUhkOjTeTQW-153" value="Yes" style="edgeLabel;html=1;align=center;verticalAlign=middle;resizable=0;points=[];" parent="dWCmlZYG6BUhkOjTeTQW-152" vertex="1" connectable="0">
          <mxGeometry x="-0.3647" y="-1" relative="1" as="geometry">
            <mxPoint x="11" as="offset" />
          </mxGeometry>
        </mxCell>
        <mxCell id="dWCmlZYG6BUhkOjTeTQW-127" value="&lt;div align=&quot;center&quot;&gt;&lt;br&gt;&lt;/div&gt;&lt;div align=&quot;center&quot;&gt;start work ?&lt;br&gt;&lt;/div&gt;&lt;div&gt;&lt;br&gt;&lt;/div&gt;" style="rhombus;whiteSpace=wrap;html=1;fillColor=#f5f5f5;fontColor=#333333;strokeColor=#666666;dashed=1;" parent="1" vertex="1">
          <mxGeometry x="209.5" y="497.5" width="101" height="50" as="geometry" />
        </mxCell>
        <mxCell id="dWCmlZYG6BUhkOjTeTQW-146" style="edgeStyle=orthogonalEdgeStyle;rounded=0;orthogonalLoop=1;jettySize=auto;html=1;exitX=0.5;exitY=1;exitDx=0;exitDy=0;entryX=0.5;entryY=0;entryDx=0;entryDy=0;" parent="1" source="dWCmlZYG6BUhkOjTeTQW-133" target="dWCmlZYG6BUhkOjTeTQW-4" edge="1">
          <mxGeometry relative="1" as="geometry" />
        </mxCell>
        <mxCell id="dWCmlZYG6BUhkOjTeTQW-133" value="Select wi" style="whiteSpace=wrap;html=1;aspect=fixed;fillColor=#66B2FF;" parent="1" vertex="1">
          <mxGeometry x="220" y="590" width="80" height="80" as="geometry" />
        </mxCell>
        <mxCell id="dWCmlZYG6BUhkOjTeTQW-155" value="&lt;font style=&quot;font-size: 24px;&quot;&gt;&lt;b&gt;DLVR delivery for a truck&lt;/b&gt;&lt;/font&gt;" style="text;html=1;align=center;verticalAlign=middle;whiteSpace=wrap;rounded=0;" parent="1" vertex="1">
          <mxGeometry x="890" y="270" width="200" height="38" as="geometry" />
        </mxCell>
        <mxCell id="dWCmlZYG6BUhkOjTeTQW-214" value="&lt;div&gt;XT : external truck&lt;/div&gt;&lt;div&gt;uniquement get ready to fetch ou get ready to put&lt;br&gt;&lt;/div&gt;" style="text;html=1;align=center;verticalAlign=middle;resizable=0;points=[];autosize=1;strokeColor=none;fillColor=none;" parent="1" vertex="1">
          <mxGeometry x="520" y="60" width="290" height="40" as="geometry" />
        </mxCell>
        <mxCell id="dWCmlZYG6BUhkOjTeTQW-215" value="UNIQUEMENT DEUX ENTITES : XT et YC" style="text;html=1;align=center;verticalAlign=middle;resizable=0;points=[];autosize=1;strokeColor=none;fillColor=none;" parent="1" vertex="1">
          <mxGeometry x="540" y="110" width="250" height="30" as="geometry" />
        </mxCell>
        <mxCell id="bN70ST8pg8FZlKciylM6-1" value="Request YC" style="whiteSpace=wrap;html=1;aspect=fixed;fillColor=#e1d5e7;dashed=1;strokeColor=#9673a6;" vertex="1" parent="1">
          <mxGeometry x="230" y="379" width="60" height="60" as="geometry" />
        </mxCell>
        <mxCell id="bN70ST8pg8FZlKciylM6-7" style="edgeStyle=orthogonalEdgeStyle;rounded=0;orthogonalLoop=1;jettySize=auto;html=1;" edge="1" parent="1" source="bN70ST8pg8FZlKciylM6-5" target="dWCmlZYG6BUhkOjTeTQW-91">
          <mxGeometry relative="1" as="geometry" />
        </mxCell>
        <mxCell id="bN70ST8pg8FZlKciylM6-5" value="XT - get ready to put" style="whiteSpace=wrap;html=1;aspect=fixed;fillColor=#CCFFCC;" vertex="1" parent="1">
          <mxGeometry x="220" y="840.0000000000001" width="80" height="80" as="geometry" />
        </mxCell>
        <mxCell id="bN70ST8pg8FZlKciylM6-8" style="edgeStyle=orthogonalEdgeStyle;rounded=0;orthogonalLoop=1;jettySize=auto;html=1;exitX=0;exitY=0.5;exitDx=0;exitDy=0;" edge="1" parent="1" source="bN70ST8pg8FZlKciylM6-12" target="bN70ST8pg8FZlKciylM6-13">
          <mxGeometry relative="1" as="geometry" />
        </mxCell>
        <mxCell id="bN70ST8pg8FZlKciylM6-9" value="RECV" style="edgeLabel;html=1;align=center;verticalAlign=middle;resizable=0;points=[];" vertex="1" connectable="0" parent="bN70ST8pg8FZlKciylM6-8">
          <mxGeometry x="-0.5404" relative="1" as="geometry">
            <mxPoint y="12" as="offset" />
          </mxGeometry>
        </mxCell>
        <mxCell id="bN70ST8pg8FZlKciylM6-47" style="edgeStyle=orthogonalEdgeStyle;rounded=0;orthogonalLoop=1;jettySize=auto;html=1;" edge="1" parent="1" source="bN70ST8pg8FZlKciylM6-12" target="bN70ST8pg8FZlKciylM6-40">
          <mxGeometry relative="1" as="geometry" />
        </mxCell>
        <mxCell id="bN70ST8pg8FZlKciylM6-48" value="&lt;div&gt;DLVR&lt;/div&gt;" style="edgeLabel;html=1;align=center;verticalAlign=middle;resizable=0;points=[];" vertex="1" connectable="0" parent="bN70ST8pg8FZlKciylM6-47">
          <mxGeometry x="-0.1715" y="-3" relative="1" as="geometry">
            <mxPoint x="-14" y="1" as="offset" />
          </mxGeometry>
        </mxCell>
        <mxCell id="bN70ST8pg8FZlKciylM6-12" value="Move kind ?" style="rhombus;whiteSpace=wrap;html=1;fillColor=#66B2FF;" vertex="1" parent="1">
          <mxGeometry x="757.25" y="728" width="125.5" height="63" as="geometry" />
        </mxCell>
        <mxCell id="bN70ST8pg8FZlKciylM6-13" value="&lt;div&gt;Launch RECV&lt;/div&gt;&lt;div&gt;Function&lt;/div&gt;" style="whiteSpace=wrap;html=1;aspect=fixed;fillColor=#66B2FF;" vertex="1" parent="1">
          <mxGeometry x="650" y="724" width="71" height="71" as="geometry" />
        </mxCell>
        <mxCell id="bN70ST8pg8FZlKciylM6-14" style="edgeStyle=orthogonalEdgeStyle;rounded=0;orthogonalLoop=1;jettySize=auto;html=1;" edge="1" parent="1" source="bN70ST8pg8FZlKciylM6-15">
          <mxGeometry relative="1" as="geometry">
            <mxPoint x="820" y="380" as="targetPoint" />
          </mxGeometry>
        </mxCell>
        <mxCell id="bN70ST8pg8FZlKciylM6-15" value="Start" style="ellipse;whiteSpace=wrap;html=1;aspect=fixed;fillColor=#66B2FF;" vertex="1" parent="1">
          <mxGeometry x="780" y="260" width="80" height="80" as="geometry" />
        </mxCell>
        <mxCell id="bN70ST8pg8FZlKciylM6-16" style="edgeStyle=orthogonalEdgeStyle;rounded=0;orthogonalLoop=1;jettySize=auto;html=1;" edge="1" parent="1" source="bN70ST8pg8FZlKciylM6-17">
          <mxGeometry relative="1" as="geometry">
            <mxPoint x="1003.8088235294117" y="634.190471056949" as="targetPoint" />
          </mxGeometry>
        </mxCell>
        <mxCell id="bN70ST8pg8FZlKciylM6-52" style="edgeStyle=orthogonalEdgeStyle;rounded=0;orthogonalLoop=1;jettySize=auto;html=1;entryX=0;entryY=0.5;entryDx=0;entryDy=0;" edge="1" parent="1" source="bN70ST8pg8FZlKciylM6-17" target="bN70ST8pg8FZlKciylM6-51">
          <mxGeometry relative="1" as="geometry" />
        </mxCell>
        <mxCell id="bN70ST8pg8FZlKciylM6-17" value="YC - load on XT" style="whiteSpace=wrap;html=1;aspect=fixed;fillColor=#66B2FF;" vertex="1" parent="1">
          <mxGeometry x="963.75" y="697.63" width="80" height="80" as="geometry" />
        </mxCell>
        <mxCell id="bN70ST8pg8FZlKciylM6-18" style="edgeStyle=orthogonalEdgeStyle;rounded=0;orthogonalLoop=1;jettySize=auto;html=1;entryX=1;entryY=0.5;entryDx=0;entryDy=0;" edge="1" parent="1" source="bN70ST8pg8FZlKciylM6-22" target="bN70ST8pg8FZlKciylM6-36">
          <mxGeometry relative="1" as="geometry" />
        </mxCell>
        <mxCell id="bN70ST8pg8FZlKciylM6-19" value="Yes" style="edgeLabel;html=1;align=center;verticalAlign=middle;resizable=0;points=[];" vertex="1" connectable="0" parent="bN70ST8pg8FZlKciylM6-18">
          <mxGeometry x="-0.2546" y="-2" relative="1" as="geometry">
            <mxPoint x="4" y="-7" as="offset" />
          </mxGeometry>
        </mxCell>
        <mxCell id="bN70ST8pg8FZlKciylM6-20" style="edgeStyle=orthogonalEdgeStyle;rounded=0;orthogonalLoop=1;jettySize=auto;html=1;entryX=0.5;entryY=1;entryDx=0;entryDy=0;" edge="1" parent="1" source="bN70ST8pg8FZlKciylM6-22" target="bN70ST8pg8FZlKciylM6-28">
          <mxGeometry relative="1" as="geometry" />
        </mxCell>
        <mxCell id="bN70ST8pg8FZlKciylM6-21" value="No" style="edgeLabel;html=1;align=center;verticalAlign=middle;resizable=0;points=[];" vertex="1" connectable="0" parent="bN70ST8pg8FZlKciylM6-20">
          <mxGeometry x="0.2406" relative="1" as="geometry">
            <mxPoint x="-10" y="10" as="offset" />
          </mxGeometry>
        </mxCell>
        <mxCell id="bN70ST8pg8FZlKciylM6-22" value="Still wi in POW ?" style="rhombus;whiteSpace=wrap;html=1;fillColor=#66B2FF;" vertex="1" parent="1">
          <mxGeometry x="941" y="598.97" width="125.5" height="63" as="geometry" />
        </mxCell>
        <mxCell id="bN70ST8pg8FZlKciylM6-23" style="edgeStyle=orthogonalEdgeStyle;rounded=0;orthogonalLoop=1;jettySize=auto;html=1;exitX=0.5;exitY=0;exitDx=0;exitDy=0;" edge="1" parent="1" source="bN70ST8pg8FZlKciylM6-24" target="bN70ST8pg8FZlKciylM6-17">
          <mxGeometry relative="1" as="geometry" />
        </mxCell>
        <mxCell id="bN70ST8pg8FZlKciylM6-24" value="YC - get ready to get for XT ()" style="whiteSpace=wrap;html=1;aspect=fixed;fillColor=#6a00ff;fontColor=#ffffff;strokeColor=#3700CC;" vertex="1" parent="1">
          <mxGeometry x="964" y="830" width="80" height="80" as="geometry" />
        </mxCell>
        <mxCell id="bN70ST8pg8FZlKciylM6-25" style="edgeStyle=orthogonalEdgeStyle;rounded=0;orthogonalLoop=1;jettySize=auto;html=1;" edge="1" parent="1" source="bN70ST8pg8FZlKciylM6-26" target="bN70ST8pg8FZlKciylM6-37">
          <mxGeometry relative="1" as="geometry" />
        </mxCell>
        <mxCell id="bN70ST8pg8FZlKciylM6-26" value="&lt;span style=&quot;text-align: left;&quot;&gt;&amp;nbsp;YC&lt;/span&gt;&lt;span style=&quot;text-align: left; background-color: initial;&quot;&gt;&amp;nbsp;Pool&amp;nbsp;&lt;/span&gt;&lt;span style=&quot;text-align: left; background-color: initial;&quot;&gt;IDLE&lt;/span&gt;" style="sketch=0;outlineConnect=0;strokeColor=#9673a6;fillColor=#e1d5e7;dashed=0;verticalLabelPosition=top;verticalAlign=bottom;align=center;html=1;fontSize=12;fontStyle=0;aspect=fixed;shape=mxgraph.aws4.resourceIcon;resIcon=mxgraph.aws4.queue;labelPosition=center;" vertex="1" parent="1">
          <mxGeometry x="974" y="379" width="60" height="60" as="geometry" />
        </mxCell>
        <mxCell id="bN70ST8pg8FZlKciylM6-27" value="" style="edgeStyle=orthogonalEdgeStyle;rounded=0;orthogonalLoop=1;jettySize=auto;html=1;" edge="1" parent="1" source="bN70ST8pg8FZlKciylM6-28" target="bN70ST8pg8FZlKciylM6-26">
          <mxGeometry relative="1" as="geometry" />
        </mxCell>
        <mxCell id="bN70ST8pg8FZlKciylM6-28" value="Release YC" style="whiteSpace=wrap;html=1;aspect=fixed;fillColor=#e1d5e7;dashed=1;strokeColor=#9673a6;" vertex="1" parent="1">
          <mxGeometry x="974" y="487.5" width="60" height="60" as="geometry" />
        </mxCell>
        <mxCell id="bN70ST8pg8FZlKciylM6-29" style="edgeStyle=orthogonalEdgeStyle;rounded=0;orthogonalLoop=1;jettySize=auto;html=1;" edge="1" parent="1" target="bN70ST8pg8FZlKciylM6-34">
          <mxGeometry relative="1" as="geometry">
            <mxPoint x="820" y="440" as="sourcePoint" />
          </mxGeometry>
        </mxCell>
        <mxCell id="bN70ST8pg8FZlKciylM6-30" style="edgeStyle=orthogonalEdgeStyle;rounded=0;orthogonalLoop=1;jettySize=auto;html=1;exitX=0;exitY=0.5;exitDx=0;exitDy=0;" edge="1" parent="1" source="bN70ST8pg8FZlKciylM6-34">
          <mxGeometry relative="1" as="geometry">
            <mxPoint x="820" y="477.5" as="targetPoint" />
            <Array as="points">
              <mxPoint x="749" y="522.5" />
              <mxPoint x="749" y="477.5" />
            </Array>
          </mxGeometry>
        </mxCell>
        <mxCell id="bN70ST8pg8FZlKciylM6-31" value="Wait" style="edgeLabel;html=1;align=center;verticalAlign=middle;resizable=0;points=[];" vertex="1" connectable="0" parent="bN70ST8pg8FZlKciylM6-30">
          <mxGeometry x="-0.3537" relative="1" as="geometry">
            <mxPoint x="11" as="offset" />
          </mxGeometry>
        </mxCell>
        <mxCell id="bN70ST8pg8FZlKciylM6-32" style="edgeStyle=orthogonalEdgeStyle;rounded=0;orthogonalLoop=1;jettySize=auto;html=1;exitX=0.5;exitY=1;exitDx=0;exitDy=0;entryX=0.5;entryY=0;entryDx=0;entryDy=0;" edge="1" parent="1" source="bN70ST8pg8FZlKciylM6-34" target="bN70ST8pg8FZlKciylM6-36">
          <mxGeometry relative="1" as="geometry" />
        </mxCell>
        <mxCell id="bN70ST8pg8FZlKciylM6-33" value="Yes" style="edgeLabel;html=1;align=center;verticalAlign=middle;resizable=0;points=[];" vertex="1" connectable="0" parent="bN70ST8pg8FZlKciylM6-32">
          <mxGeometry x="-0.3647" y="-1" relative="1" as="geometry">
            <mxPoint x="11" as="offset" />
          </mxGeometry>
        </mxCell>
        <mxCell id="bN70ST8pg8FZlKciylM6-34" value="&lt;div align=&quot;center&quot;&gt;&lt;br&gt;&lt;/div&gt;&lt;div align=&quot;center&quot;&gt;start work ?&lt;br&gt;&lt;/div&gt;&lt;div&gt;&lt;br&gt;&lt;/div&gt;" style="rhombus;whiteSpace=wrap;html=1;fillColor=#f5f5f5;fontColor=#333333;strokeColor=#666666;dashed=1;" vertex="1" parent="1">
          <mxGeometry x="769.5" y="497.5" width="101" height="50" as="geometry" />
        </mxCell>
        <mxCell id="bN70ST8pg8FZlKciylM6-35" style="edgeStyle=orthogonalEdgeStyle;rounded=0;orthogonalLoop=1;jettySize=auto;html=1;exitX=0.5;exitY=1;exitDx=0;exitDy=0;entryX=0.5;entryY=0;entryDx=0;entryDy=0;" edge="1" parent="1" source="bN70ST8pg8FZlKciylM6-36" target="bN70ST8pg8FZlKciylM6-12">
          <mxGeometry relative="1" as="geometry" />
        </mxCell>
        <mxCell id="bN70ST8pg8FZlKciylM6-36" value="Select wi" style="whiteSpace=wrap;html=1;aspect=fixed;fillColor=#66B2FF;" vertex="1" parent="1">
          <mxGeometry x="780" y="590" width="80" height="80" as="geometry" />
        </mxCell>
        <mxCell id="bN70ST8pg8FZlKciylM6-37" value="Request YC" style="whiteSpace=wrap;html=1;aspect=fixed;fillColor=#e1d5e7;dashed=1;strokeColor=#9673a6;" vertex="1" parent="1">
          <mxGeometry x="790" y="379" width="60" height="60" as="geometry" />
        </mxCell>
        <mxCell id="bN70ST8pg8FZlKciylM6-38" style="edgeStyle=orthogonalEdgeStyle;rounded=0;orthogonalLoop=1;jettySize=auto;html=1;" edge="1" parent="1" source="bN70ST8pg8FZlKciylM6-39" target="bN70ST8pg8FZlKciylM6-24">
          <mxGeometry relative="1" as="geometry" />
        </mxCell>
        <mxCell id="bN70ST8pg8FZlKciylM6-39" value="XT - get ready to fetch" style="whiteSpace=wrap;html=1;aspect=fixed;fillColor=#CCFFCC;" vertex="1" parent="1">
          <mxGeometry x="964" y="960.0000000000001" width="80" height="80" as="geometry" />
        </mxCell>
        <mxCell id="bN70ST8pg8FZlKciylM6-44" style="edgeStyle=orthogonalEdgeStyle;rounded=0;orthogonalLoop=1;jettySize=auto;html=1;" edge="1" parent="1" source="bN70ST8pg8FZlKciylM6-40" target="bN70ST8pg8FZlKciylM6-41">
          <mxGeometry relative="1" as="geometry" />
        </mxCell>
        <mxCell id="bN70ST8pg8FZlKciylM6-40" value="YC - fetch ()" style="whiteSpace=wrap;html=1;aspect=fixed;fillColor=#66B2FF;" vertex="1" parent="1">
          <mxGeometry x="780" y="830" width="80" height="80" as="geometry" />
        </mxCell>
        <mxCell id="bN70ST8pg8FZlKciylM6-45" style="edgeStyle=orthogonalEdgeStyle;rounded=0;orthogonalLoop=1;jettySize=auto;html=1;" edge="1" parent="1" source="bN70ST8pg8FZlKciylM6-41" target="bN70ST8pg8FZlKciylM6-39">
          <mxGeometry relative="1" as="geometry" />
        </mxCell>
        <mxCell id="bN70ST8pg8FZlKciylM6-41" value="Request XT" style="whiteSpace=wrap;html=1;aspect=fixed;fillColor=#CCFFCC;dashed=1;strokeColor=#9673a6;" vertex="1" parent="1">
          <mxGeometry x="790" y="970" width="60" height="60" as="geometry" />
        </mxCell>
        <mxCell id="bN70ST8pg8FZlKciylM6-46" style="edgeStyle=orthogonalEdgeStyle;rounded=0;orthogonalLoop=1;jettySize=auto;html=1;" edge="1" parent="1" source="bN70ST8pg8FZlKciylM6-42" target="bN70ST8pg8FZlKciylM6-41">
          <mxGeometry relative="1" as="geometry">
            <Array as="points">
              <mxPoint x="700" y="1000" />
            </Array>
          </mxGeometry>
        </mxCell>
        <mxCell id="bN70ST8pg8FZlKciylM6-42" value="&lt;span style=&quot;text-align: left;&quot;&gt;&amp;nbsp;XT &lt;/span&gt;&lt;span style=&quot;text-align: left; background-color: initial;&quot;&gt;Pool&amp;nbsp;&lt;/span&gt;&lt;span style=&quot;text-align: left; background-color: initial;&quot;&gt;IDLE&lt;/span&gt;" style="sketch=0;outlineConnect=0;strokeColor=#9673a6;fillColor=#CCFFCC;dashed=0;verticalLabelPosition=top;verticalAlign=bottom;align=center;html=1;fontSize=12;fontStyle=0;aspect=fixed;shape=mxgraph.aws4.resourceIcon;resIcon=mxgraph.aws4.queue;labelPosition=center;" vertex="1" parent="1">
          <mxGeometry x="670" y="850" width="60" height="60" as="geometry" />
        </mxCell>
        <mxCell id="bN70ST8pg8FZlKciylM6-49" style="edgeStyle=orthogonalEdgeStyle;rounded=0;orthogonalLoop=1;jettySize=auto;html=1;" edge="1" parent="1" source="bN70ST8pg8FZlKciylM6-43" target="bN70ST8pg8FZlKciylM6-42">
          <mxGeometry relative="1" as="geometry" />
        </mxCell>
        <mxCell id="bN70ST8pg8FZlKciylM6-43" value="Release XT" style="whiteSpace=wrap;html=1;aspect=fixed;fillColor=#CCFFCC;dashed=1;strokeColor=#9673a6;" vertex="1" parent="1">
          <mxGeometry x="550" y="850" width="60" height="60" as="geometry" />
        </mxCell>
        <mxCell id="bN70ST8pg8FZlKciylM6-51" value="Release XT" style="whiteSpace=wrap;html=1;aspect=fixed;fillColor=#CCFFCC;dashed=1;strokeColor=#9673a6;" vertex="1" parent="1">
          <mxGeometry x="1100" y="707.63" width="60" height="60" as="geometry" />
        </mxCell>
      </root>
    </mxGraphModel>
  </diagram>
</mxfile>
